<svg id="Layer_1" enable-background="new 0 0 505.119 505.119" height="512" viewBox="0 0 505.119 505.119" width="512" xmlns="http://www.w3.org/2000/svg"><path d="m489.119 0h-473.119c-8.837 0-16 7.164-16 16v473.118c0 8.836 7.163 16 16 16h473.119c8.837 0 16-7.164 16-16v-473.118c0-8.836-7.163-16-16-16zm-326.946 145.195c-12.993 0-23.563 10.57-23.563 23.563v92.257h13.458c8.837 0 16 7.164 16 16s-7.163 16-16 16h-13.458v43.345c0 30.638-24.926 55.563-55.563 55.563h-5.275c-8.837 0-16-7.164-16-16s7.163-16 16-16h5.275c12.993 0 23.563-10.57 23.563-23.563v-43.345h-16.172c-8.837 0-16-7.164-16-16s7.163-16 16-16h16.171v-92.257c0-30.638 24.926-55.563 55.563-55.563 8.837 0 16 7.164 16 16s-7.162 16-15.999 16zm98.045 213.592c-40.389 0-73.248-32.859-73.248-73.248v-65.96c0-40.389 32.859-73.248 73.248-73.248 8.837 0 16 7.164 16 16s-7.163 16-16 16c-22.744 0-41.248 18.503-41.248 41.248v65.96c0 22.744 18.504 41.248 41.248 41.248 8.837 0 16 7.164 16 16s-7.163 16-16 16zm57.191-58.992c-8.816 8.115-20.573 13.082-33.471 13.082h-3.413c-8.837 0-16-7.164-16-16s7.163-16 16-16h3.413c9.634 0 17.472-7.837 17.472-17.471v-21.692c0-9.633-7.838-17.471-17.472-17.471h-3.413c-8.837 0-16-7.164-16-16s7.163-16 16-16h3.413c12.898 0 24.656 4.967 33.471 13.082 8.816-8.115 20.573-13.082 33.471-13.082h3.414c8.837 0 16 7.164 16 16s-7.163 16-16 16h-3.414c-9.634 0-17.471 7.837-17.471 17.471v21.692c0 9.633 7.837 17.471 17.471 17.471h3.414c8.837 0 16 7.164 16 16s-7.163 16-16 16h-3.414c-12.899-.001-24.655-4.967-33.471-13.082zm125.94-14.255c0 40.389-32.859 73.248-73.248 73.248-8.837 0-16-7.164-16-16s7.163-16 16-16c22.744 0 41.248-18.503 41.248-41.248v-65.96c0-22.744-18.504-41.248-41.248-41.248-8.837 0-16-7.164-16-16s7.163-16 16-16c40.389 0 73.248 32.859 73.248 73.248z"/></svg>